<svg width="28" height="28" viewBox="0 0 28 28" fill="none" xmlns="http://www.w3.org/2000/svg">
<path fill-rule="evenodd" clip-rule="evenodd" d="M23.9206 4.06881C22.6263 2.77385 21.0886 1.74769 19.3961 1.04941C17.7035 0.35112 15.8896 -0.00550401 14.0587 6.42122e-05C6.37499 6.42122e-05 0.12 6.2238 0.116875 13.875C0.113476 16.3114 0.755683 18.7051 1.97812 20.8125L0 28L7.39061 26.0706C9.43637 27.1789 11.7264 27.759 14.0531 27.7581H14.0587C21.7418 27.7581 27.9962 21.5338 28 13.8832C28.0046 12.0585 27.6463 10.2512 26.946 8.56626C26.2457 6.88136 25.2173 5.35256 23.9206 4.06881ZM14.0587 25.4163H14.0537C11.9796 25.4169 9.94317 24.8618 8.15624 23.8088L7.73311 23.5588L3.34749 24.7038L4.51812 20.4482L4.24249 20.0107C3.08274 18.1745 2.46828 16.0468 2.47062 13.875C2.47062 7.51693 7.67124 2.34381 14.0631 2.34381C17.1293 2.33834 20.0722 3.55102 22.2444 5.71513C24.4166 7.87924 25.6402 10.8176 25.6462 13.8838C25.6437 20.2425 20.4456 25.4163 14.0587 25.4163ZM20.4143 16.7794C20.0662 16.6057 18.3518 15.7669 18.0343 15.6513C17.7168 15.5357 17.4825 15.4775 17.2506 15.825C17.0187 16.1725 16.3506 16.95 16.1475 17.1844C15.9443 17.4188 15.7412 17.4444 15.3931 17.2707C15.045 17.0969 13.9219 16.7313 12.5912 15.55C11.5556 14.6307 10.8569 13.4957 10.6537 13.1488C10.4506 12.8019 10.6319 12.6138 10.8062 12.4413C10.9631 12.2857 11.1544 12.0363 11.3287 11.8338C11.5031 11.6313 11.5612 11.4863 11.6769 11.255C11.7925 11.0238 11.735 10.8213 11.6481 10.6482C11.5612 10.475 10.8644 8.76817 10.5744 8.0738C10.2912 7.39755 10.0044 7.48943 9.79061 7.4788C9.58748 7.4688 9.35311 7.4663 9.12249 7.4663C8.94618 7.47089 8.77271 7.51178 8.61292 7.58641C8.45312 7.66104 8.31042 7.76781 8.19374 7.90005C7.87436 8.24755 6.97436 9.08755 6.97436 10.7925C6.97436 12.4975 8.22436 14.1475 8.39686 14.3788C8.56936 14.61 10.8531 18.1119 14.3475 19.6138C14.9963 19.8917 15.6593 20.1353 16.3337 20.3438C17.1681 20.6075 17.9275 20.5707 18.5275 20.4813C19.1968 20.3819 20.59 19.6425 20.8793 18.8325C21.1687 18.0225 21.1693 17.3288 21.0825 17.1844C20.9956 17.04 20.7631 16.9525 20.4143 16.7794Z" fill="white"/>
</svg>
