<svg width="28" height="22" viewBox="0 0 28 22" fill="none" xmlns="http://www.w3.org/2000/svg">
<path d="M24.1206 3.03414C22.8564 2.02932 21.2996 1.31906 20.0998 0.870328C19.67 0.709281 19.1856 0.765716 18.8076 1.02312C18.4268 1.27914 18.2 1.70309 18.2 2.15595C18.2 2.63221 17.808 3.01762 17.3236 3.01762C15.1214 3.01762 12.8772 3.01762 10.675 3.01762C10.192 3.01762 9.8 2.63221 9.8 2.15733C9.8 1.70447 9.5732 1.27914 9.1938 1.02312C8.8144 0.765716 8.33 0.709281 7.9002 0.871705C6.6962 1.32456 5.131 2.0417 3.8486 3.06029C2.5634 4.23167 0 11.0851 0 17.0094C0 17.1141 0.0265999 17.2159 0.0797999 17.3068C1.8508 20.3804 6.6794 21.1843 7.7784 21.2187C7.7854 21.2201 7.791 21.2201 7.798 21.2201C7.9926 21.2201 8.1984 21.143 8.2894 20.9723L9.3856 18.9282C8.4812 18.7025 7.5474 18.4341 6.5296 18.079C5.8002 17.8243 5.4208 17.037 5.6798 16.3212C5.9388 15.6054 6.741 15.2324 7.4676 15.4857C12.404 17.2118 15.3412 17.2104 20.5506 15.4788C21.2856 15.2379 22.0794 15.622 22.3258 16.3419C22.5736 17.0618 22.1802 17.8436 21.448 18.0872C20.4288 18.4258 19.4992 18.6846 18.599 18.9048L19.7092 20.9737C19.8002 21.1444 20.0074 21.2214 20.2006 21.2214C20.2076 21.2214 20.2132 21.2215 20.2202 21.2201C21.3206 21.1857 26.1492 20.3804 27.9188 17.3068C27.9734 17.2159 28 17.1141 28 17.0081C28 11.0851 25.4366 4.23167 24.1206 3.03414ZM9.856 14.0129C8.6954 14.0129 7.756 12.7837 7.756 11.2654C7.756 9.74856 8.6954 8.518 9.856 8.518C11.0208 8.36659 11.9308 9.74719 11.956 11.2654C11.956 12.7837 11.0166 14.0129 9.856 14.0129ZM18.1944 14.0459C17.0338 14.0459 16.0944 12.814 16.0944 11.293C16.0944 9.77197 17.0338 8.54002 18.1944 8.54002C19.355 8.54002 20.2944 9.77197 20.2944 11.293C20.2944 12.814 19.355 14.0459 18.1944 14.0459Z" fill="white"/>
</svg>
