<svg width="28" height="28" viewBox="0 0 28 28" fill="none" xmlns="http://www.w3.org/2000/svg">
<path d="M24.8889 0H3.11111C1.39222 0 0 1.39222 0 3.11111V24.8889C0 26.6078 1.39222 28 3.11111 28H14.966V17.1718H11.3213V12.9329H14.966V9.814C14.966 6.19889 17.1764 4.228 20.4027 4.228C21.49 4.22489 22.5758 4.28089 23.6569 4.39133V8.17133H21.4356C19.6778 8.17133 19.3356 9.002 19.3356 10.2278V12.9267H23.5356L22.9896 17.1656H19.3107V28H24.8889C26.6078 28 28 26.6078 28 24.8889V3.11111C28 1.39222 26.6078 0 24.8889 0Z" fill="white"/>
</svg>
