<svg width="28" height="28" viewBox="0 0 28 28" fill="none" xmlns="http://www.w3.org/2000/svg">
<path d="M19.8331 2.33313C21.3789 2.33774 22.8601 2.95385 23.9531 4.04689C25.0462 5.13993 25.6623 6.62109 25.6669 8.16687V19.8331C25.6623 21.3789 25.0462 22.8601 23.9531 23.9531C22.8601 25.0462 21.3789 25.6623 19.8331 25.6669H8.16687C6.62109 25.6623 5.13993 25.0462 4.04689 23.9531C2.95385 22.8601 2.33774 21.3789 2.33313 19.8331V8.16687C2.33774 6.62109 2.95385 5.13993 4.04689 4.04689C5.13993 2.95385 6.62109 2.33774 8.16687 2.33313H19.8331ZM19.8331 0H8.16687C3.675 0 0 3.675 0 8.16687V19.8331C0 24.325 3.675 28 8.16687 28H19.8331C24.325 28 28 24.325 28 19.8331V8.16687C28 3.675 24.325 0 19.8331 0Z" fill="white"/>
<path d="M21.583 8.16675C21.2369 8.16675 20.8985 8.06411 20.6108 7.87182C20.323 7.67953 20.0987 7.40622 19.9662 7.08644C19.8338 6.76667 19.7991 6.41481 19.8666 6.07534C19.9342 5.73587 20.1008 5.42405 20.3456 5.17931C20.5903 4.93457 20.9021 4.7679 21.2416 4.70037C21.5811 4.63285 21.9329 4.66751 22.2527 4.79996C22.5725 4.93241 22.8458 5.15671 23.0381 5.4445C23.2304 5.73229 23.333 6.07063 23.333 6.41675C23.3335 6.6467 23.2886 6.87449 23.2008 7.08703C23.113 7.29957 22.9841 7.49269 22.8215 7.65529C22.6589 7.81789 22.4658 7.94677 22.2533 8.03454C22.0407 8.12232 21.813 8.16724 21.583 8.16675Z" fill="white"/>
<path d="M14 9.33313C14.923 9.33313 15.8253 9.60683 16.5928 10.1196C17.3602 10.6324 17.9584 11.3613 18.3116 12.2141C18.6649 13.0668 18.7573 14.0052 18.5772 14.9105C18.3971 15.8157 17.9527 16.6473 17.3 17.3C16.6473 17.9527 15.8157 18.3971 14.9105 18.5772C14.0052 18.7573 13.0668 18.6649 12.2141 18.3116C11.3613 17.9584 10.6324 17.3602 10.1196 16.5928C9.60684 15.8253 9.33313 14.923 9.33313 14C9.33445 12.7627 9.82656 11.5764 10.7015 10.7015C11.5764 9.82656 12.7627 9.33445 14 9.33313ZM14 7C12.6155 7 11.2622 7.41054 10.111 8.17971C8.95987 8.94888 8.06266 10.0421 7.53285 11.3212C7.00303 12.6003 6.86441 14.0078 7.13451 15.3656C7.4046 16.7235 8.07129 17.9708 9.05026 18.9497C10.0292 19.9287 11.2765 20.5954 12.6344 20.8655C13.9922 21.1356 15.3997 20.997 16.6788 20.4672C17.9579 19.9373 19.0511 19.0401 19.8203 17.889C20.5895 16.7378 21 15.3845 21 14C21 12.1435 20.2625 10.363 18.9497 9.05025C17.637 7.7375 15.8565 7 14 7Z" fill="white"/>
</svg>
