<?xml version="1.0" encoding="UTF-8" standalone="no"?>
<!-- Uploaded to: SVG Repo, www.svgrepo.com, Generator: SVG Repo Mixer Tools -->

<svg
   width="800px"
   height="800px"
   viewBox="0 0 24 24"
   fill="none"
   version="1.1"
   id="svg1"
   sodipodi:docname="telegram.svg"
   inkscape:version="1.4.4 (dcaf3e7d9e, 2026-05-05)"
   xmlns:inkscape="http://www.inkscape.org/namespaces/inkscape"
   xmlns:sodipodi="http://sodipodi.sourceforge.net/DTD/sodipodi-0.dtd"
   xmlns="http://www.w3.org/2000/svg"
   xmlns:svg="http://www.w3.org/2000/svg">
  <defs
     id="defs1" />
  <sodipodi:namedview
     id="namedview1"
     pagecolor="#ffffff"
     bordercolor="#000000"
     borderopacity="0.25"
     inkscape:showpageshadow="2"
     inkscape:pageopacity="0.0"
     inkscape:pagecheckerboard="0"
     inkscape:deskcolor="#d1d1d1"
     inkscape:zoom="1.01875"
     inkscape:cx="400.4908"
     inkscape:cy="400"
     inkscape:window-width="1920"
     inkscape:window-height="1065"
     inkscape:window-x="0"
     inkscape:window-y="0"
     inkscape:window-maximized="1"
     inkscape:current-layer="svg1" />
  <path
     d="m 12,0.74999998 c -2.2249695,0 -4.4001149,0.65979802 -6.2501639,1.89596082 C 3.899788,3.8821243 2.4578473,5.6391343 1.606363,7.6948018 0.75487868,9.7504138 0.53208648,12.012503 0.96616758,14.194723 1.400249,16.377077 2.471713,18.381545 4.0450537,19.954999 c 1.5733404,1.573308 3.5778939,2.644731 5.7602108,3.07884 2.1822195,0.434107 4.4443135,0.211218 6.4999695,-0.640266 2.055655,-0.851483 3.812625,-2.293311 5.048859,-4.143372 C 22.590187,16.400141 23.25,14.225096 23.25,11.999989 23.25,9.0163093 22.064671,6.1548328 19.955016,4.0450513 17.845218,1.9352578 14.983641,0.74999998 12,0.74999998 Z m 5.526561,7.70624232 -1.842186,8.7046807 c -0.140625,0.618749 -0.506252,0.759372 -1.026564,0.478124 l -2.8125,-2.081249 -1.406249,1.307813 c -0.06624,0.08648 -0.151312,0.156804 -0.248766,0.2056 -0.09746,0.04865 -0.204751,0.07452 -0.313735,0.07566 l 0.196875,-2.812498 5.203125,-4.7109327 c 0.239062,-0.1968705 0,-0.3093735 -0.3375,-0.1125 L 8.554686,13.518748 5.7421861,12.646874 C 5.1374989,12.464068 5.1234364,12.042187 5.8687486,11.760937 L 16.710936,7.5421933 c 0.534375,-0.1546965 0.984376,0.154695 0.815625,0.9140595 z"
     fill="#000000"
     id="path1"
     style="stroke-width:1.40626" />
</svg>
