<svg width="28" height="23" viewBox="0 0 28 23" fill="none" xmlns="http://www.w3.org/2000/svg">
<path d="M28 2.65418C26.9497 3.11055 25.8384 3.41122 24.7013 3.54668C25.8963 2.8469 26.795 1.73517 27.2288 0.42001C26.099 1.08069 24.8649 1.54425 23.5795 1.79084C23.0382 1.22357 22.3872 0.772287 21.6661 0.464428C20.945 0.156568 20.1688 -0.00143927 19.3847 9.87841e-06C16.2103 9.87841e-06 13.6413 2.53168 13.6413 5.65251C13.639 6.08661 13.6887 6.51941 13.7894 6.94168C11.5131 6.83496 9.28406 6.25427 7.24499 5.23674C5.20592 4.21922 3.4017 2.78727 1.94775 1.03251C1.43767 1.89241 1.16791 2.87354 1.16667 3.87334C1.16667 5.83334 2.18925 7.56584 3.73333 8.58084C2.81851 8.55913 1.92243 8.317 1.12117 7.87501V7.94501C1.12117 10.6867 3.1045 12.9675 5.7295 13.4867C5.23587 13.6183 4.7272 13.6849 4.21633 13.685C3.85384 13.6856 3.49217 13.6505 3.13658 13.58C3.86633 15.8258 5.99025 17.4592 8.50617 17.5058C6.4618 19.0814 3.95186 19.9329 1.37083 19.9267C0.912694 19.926 0.45498 19.8987 0 19.845C2.62569 21.5216 5.67784 22.4085 8.79317 22.4C19.3725 22.4 25.1522 13.7842 25.1522 6.31168C25.1522 6.06668 25.1457 5.82168 25.1341 5.58251C26.2559 4.78454 27.2264 3.79291 28 2.65418Z" fill="white"/>
</svg>
